<?xml version="1.0" encoding="UTF-8"?>
<svg version="1.1" xmlns="http://www.w3.org/2000/svg" width="895" height="980">
<path d="M0 0 C0.56638184 0.42216797 1.13276367 0.84433594 1.71630859 1.27929688 C11.42047407 8.55263589 20.27952063 16.58354664 29 25 C30.41152344 26.34964844 30.41152344 26.34964844 31.8515625 27.7265625 C37.21915853 32.96121497 42.09408988 38.45620208 46.71484375 44.35986328 C47.62664713 45.52352117 48.54388093 46.68293315 49.46484375 47.83935547 C94.80981419 104.84567274 115.07797582 176.62588618 107.35498047 248.94433594 C103.6835454 280.54796824 95.09862051 311.97401202 80.00927734 340.09472656 C78.95935844 342.07672151 77.95552436 344.07758863 76.95703125 346.0859375 C66.77732171 366.31382365 53.09595809 384.70628873 37.62109375 401.19140625 C35.17323922 403.81436811 32.80247967 406.49001001 30.4375 409.1875 C25.9338253 414.182773 21.11867069 418.64221279 16 423 C15.45021484 423.47276367 14.90042969 423.94552734 14.33398438 424.43261719 C3.20574799 433.94938765 -8.68416748 442.10158179 -21 450 C-21.76957031 450.50015625 -22.53914062 451.0003125 -23.33203125 451.515625 C-24.04746094 451.97453125 -24.76289062 452.4334375 -25.5 452.90625 C-26.1290625 453.31166016 -26.758125 453.71707031 -27.40625 454.13476562 C-29 455 -29 455 -31 455 C-31 455.66 -31 456.32 -31 457 C-30.05382812 457.10570312 -29.10765625 457.21140625 -28.1328125 457.3203125 C-23.24064413 458.02758447 -18.59423654 459.43254276 -13.875 460.875 C-12.40969849 461.32214355 -12.40969849 461.32214355 -10.91479492 461.77832031 C-2.27209254 464.48325221 6.21631321 467.55625971 14.6875 470.75 C15.32391418 470.98797302 15.96032837 471.22594604 16.61602783 471.47113037 C18.43840315 472.15516234 20.25640455 472.85081245 22.07421875 473.546875 C23.12182373 473.94745117 24.16942871 474.34802734 25.2487793 474.76074219 C27.83255237 475.92457501 29.82368363 477.20156388 32 479 C17.12493595 491.0709676 0.81088633 501.15190097 -16.17041016 509.99658203 C-18.2119141 511.07002594 -18.2119141 511.07002594 -20.76171875 512.96484375 C-26.1183011 514.67714088 -30.75792638 512.60881029 -36 511 C-37.92203866 510.45818477 -39.84520721 509.92036034 -41.76953125 509.38671875 C-43.23036133 508.97353394 -43.23036133 508.97353394 -44.72070312 508.55200195 C-66.47813061 502.46837508 -88.46043065 498.32500525 -110.875 495.6875 C-111.90705566 495.56539658 -111.90705566 495.56539658 -112.95996094 495.44082642 C-129.58111239 493.50670066 -146.14696482 492.79017556 -162.875 492.8125 C-164.14558258 492.81340637 -164.14558258 492.81340637 -165.4418335 492.81433105 C-270.63047769 493.01646048 -375.35212072 530.63867287 -467.5637207 617.37841797 C-473.11406709 622.99888764 -478.1684153 628.74736097 -483 635 C-483.93439934 636.14836325 -484.87213529 637.29401651 -485.8125 638.4375 C-526.60513023 688.21476953 -552.0536756 749.86927147 -556.44921875 814.203125 C-556.52245361 815.22591553 -556.59568848 816.24870605 -556.67114258 817.30249023 C-556.80224262 819.23821764 -556.91433446 821.1753763 -557.00268555 823.11352539 C-557.54791117 831.39117843 -560.19373265 838.69505193 -566.375 844.4375 C-574.18909308 850.31889628 -581.30417997 851.12290121 -591 850 C-598.29866172 847.86380633 -603.92011193 843.40959688 -608 837 C-610.646473 831.29105323 -610.34442739 825.41837223 -610.3125 819.25 C-610.30686035 818.10112305 -610.3012207 816.95224609 -610.29541016 815.76855469 C-609.22736779 738.21387424 -574.77888866 659.60923065 -525 601 C-524.1156828 599.9415755 -523.23158057 598.88297137 -522.34765625 597.82421875 C-509.84830813 582.94933224 -496.48745465 568.9492417 -482 556 C-481.42572266 555.48630859 -480.85144531 554.97261719 -480.25976562 554.44335938 C-470.89211778 546.12249544 -461.03946572 538.48827083 -451 531 C-450.29391602 530.46761719 -449.58783203 529.93523438 -448.86035156 529.38671875 C-430.98490798 515.93718591 -411.75591662 504.46470782 -392 494 C-391.14486816 493.54447754 -390.28973633 493.08895508 -389.40869141 492.61962891 C-367.03646919 480.7999646 -343.65311086 471.36597827 -319.6875 463.3125 C-318.47304199 462.90241699 -317.25858398 462.49233398 -316.00732422 462.06982422 C-309.06171946 459.79666429 -302.23115526 458.07389763 -295 457 C-295 456.34 -295 455.68 -295 455 C-295.67417969 454.76023437 -296.34835937 454.52046875 -297.04296875 454.2734375 C-300.67695253 452.70847223 -303.97046844 450.72352293 -307.3125 448.625 C-308.00964111 448.18728271 -308.70678223 447.74956543 -309.42504883 447.29858398 C-329.96362094 434.19674892 -350.3992144 417.78804287 -366 399 C-366.88418701 397.99776077 -367.77117094 396.9979856 -368.66015625 396 C-379.86535508 383.33565657 -389.47204349 369.60013068 -398 355 C-398.37302246 354.37673828 -398.74604492 353.75347656 -399.13037109 353.11132812 C-434.94718287 293.05041677 -443.50694727 218.67438898 -426.93334961 151.22631836 C-422.10904526 132.37915881 -415.44863493 114.51501951 -407 97 C-406.65243652 96.27748047 -406.30487305 95.55496094 -405.94677734 94.81054688 C-397.43303158 77.3709044 -386.34342212 60.95612853 -374 46 C-373.52272461 45.42121094 -373.04544922 44.84242188 -372.55371094 44.24609375 C-361.23194977 30.63396992 -349.04897541 17.82250468 -335 7 C-333.73641473 5.99680428 -332.47343816 4.99284158 -331.2109375 3.98828125 C-292.72847175 -26.35908769 -247.51172167 -45.27395327 -199 -52 C-198.15759766 -52.11714355 -197.31519531 -52.23428711 -196.44726562 -52.35498047 C-127.15801235 -61.48412445 -55.6677959 -41.84381522 0 0 Z M-322.70703125 67.515625 C-326.69601405 71.83758932 -330.36339547 76.38069854 -334 81 C-334.77988281 81.95132813 -335.55976563 82.90265625 -336.36328125 83.8828125 C-371.88174675 128.1817599 -386.90033776 186.97985134 -380.875 243 C-376.07316723 282.51230848 -361.01233545 320.88499851 -336 352 C-335.22914063 352.97453125 -334.45828125 353.9490625 -333.6640625 354.953125 C-312.08865753 381.6612857 -285.17583902 402.6681744 -254 417 C-252.85402344 417.53109375 -251.70804688 418.0621875 -250.52734375 418.609375 C-233.87738342 426.02634929 -216.85963131 430.55584093 -199 434 C-197.80375 434.2371875 -196.6075 434.474375 -195.375 434.71875 C-142.50291284 443.70700482 -83.70761132 429.82818264 -40 399 C-29.89868283 391.7921308 -20.3870141 384.06342795 -11.47460938 375.42773438 C-10.0407908 374.03949414 -8.59090719 372.6679068 -7.140625 371.296875 C0.00428928 364.39416121 6.0656599 356.9334818 12 349 C12.64001953 348.15912842 12.64001953 348.15912842 13.29296875 347.30126953 C20.54804416 337.74410288 26.46363834 327.63447658 32 317 C32.52956299 315.99791504 32.52956299 315.99791504 33.06982422 314.97558594 C58.25750992 266.77052733 62.6521172 207.67994106 47.2109375 155.7890625 C39.00774681 129.63631593 26.9062577 105.59704868 10 84 C9.25105469 83.03835937 8.50210937 82.07671875 7.73046875 81.0859375 C-0.35212027 70.97906042 -9.00389767 61.24537254 -19 53 C-19.79792969 52.29101562 -20.59585937 51.58203125 -21.41796875 50.8515625 C-96.61856407 -14.69705232 -211.39715074 -17.9688863 -322.70703125 67.515625 Z " fill="#050505" transform="translate(610,130)"/>
<path d="M0 0 C1.66536049 -0.01058945 1.66536049 -0.01058945 3.36436462 -0.02139282 C49.22433877 -0.24685523 49.22433877 -0.24685523 69.0625 3.203125 C70.26132812 3.40180176 71.46015625 3.60047852 72.6953125 3.80517578 C135.86809695 14.45361861 195.08426579 40.73197133 244.0625 82.203125 C245.0525 83.00878906 246.0425 83.81445312 247.0625 84.64453125 C254.96561883 91.15004591 262.26802239 98.22024545 269.5 105.453125 C269.97249176 105.92471039 270.44498352 106.39629578 270.93179321 106.88217163 C276.52694523 112.47854033 281.95434616 118.15782969 287.0625 124.203125 C288.16658203 125.5025 288.16658203 125.5025 289.29296875 126.828125 C326.2772496 171.71124428 368.0625 239.69978262 368.0625 300.203125 C368.59617187 300.326875 369.12984375 300.450625 369.6796875 300.578125 C382.11074764 304.01924891 390.98365086 314.01156622 397.625 324.640625 C411.58571558 349.58167868 414.5119519 381.72056427 407.26171875 409.20703125 C401.90319724 427.60857154 393.09595698 445.62410393 375.87890625 455.44921875 C371.76091932 457.45315891 367.78359773 458.53436085 363.2734375 459.30859375 C361.80463135 459.56419067 361.80463135 459.56419067 360.30615234 459.82495117 C359.56574707 459.94974854 358.8253418 460.0745459 358.0625 460.203125 C357.80670166 460.97688477 357.55090332 461.75064453 357.28735352 462.54785156 C351.98642752 478.48959828 346.41999443 494.0701353 339.0625 509.203125 C338.73040527 509.89615723 338.39831055 510.58918945 338.05615234 511.30322266 C335.809158 515.98157439 333.47113423 520.60604259 331.0625 525.203125 C330.7010791 525.8955127 330.3396582 526.58790039 329.96728516 527.30126953 C310.32410701 564.60218631 281.84211528 601.85361519 248.578125 628.1796875 C246.30952481 630.00443113 244.1899226 631.90558896 242.0625 633.890625 C217.97124311 655.45272859 164.27519894 695.203125 130.0625 695.203125 C130.02125 696.0075 129.98 696.811875 129.9375 697.640625 C128.33968654 704.14600836 124.75127655 709.4408556 119.125 713.140625 C111.57372286 717.30387665 104.47147722 718.20810101 96.125 716.140625 C89.30327282 713.92901482 84.30539425 709.64961542 80.625 703.515625 C77.07315598 695.98571567 76.8101635 687.82023214 79.625 679.953125 C82.71524423 673.16966206 87.02903706 668.85586923 93.8125 665.765625 C102.45234903 662.74167784 109.80155521 663.54103925 118.06640625 667.23046875 C119.40179438 667.88117647 120.73383691 668.53879346 122.0625 669.203125 C126.33063471 667.96830224 130.43455408 666.21531866 134.5625 664.578125 C135.18553009 664.33181335 135.80856018 664.08550171 136.45046997 663.83172607 C171.56781837 649.88158953 204.75071021 630.17837811 232.5859375 604.46875 C234.63778734 602.59166339 236.71910954 600.76937863 238.82421875 598.953125 C249.85920093 589.31875652 260.07883332 578.7675541 269.0625 567.203125 C269.96287875 566.11187945 270.86675103 565.02351031 271.7734375 563.9375 C327.30313198 496.96515484 351.11306109 408.57826236 343.23583984 322.63452148 C342.66064642 317.46361826 341.91096455 312.33566744 341.0625 307.203125 C340.89621094 306.15608398 340.72992187 305.10904297 340.55859375 304.03027344 C331.12583729 246.05375737 306.05484859 192.60222091 269.0625 147.203125 C268.63630371 146.67251465 268.21010742 146.1419043 267.77099609 145.59521484 C261.01057893 137.21823179 253.58446725 129.51906064 246 121.890625 C244.63524536 120.51197266 244.63524536 120.51197266 243.24291992 119.10546875 C237.15591476 113.04637308 230.786126 107.54107311 224.0625 102.203125 C222.9629583 101.29785815 221.86494212 100.39072973 220.76953125 99.48046875 C204.44780916 86.28652606 186.66471181 74.8930806 168.0625 65.203125 C167.42538086 64.86410156 166.78826172 64.52507812 166.13183594 64.17578125 C91.02506644 24.27409699 0.93768385 17.15532631 -80.20166016 41.36425781 C-129.55602397 56.49736455 -177.05612463 82.47749112 -213.35498047 119.64916992 C-214.9375 121.203125 -214.9375 121.203125 -217.9375 123.640625 C-220.95218861 126.21567152 -223.40736484 128.91112402 -225.96875 131.921875 C-228.14947085 134.44874202 -230.41526143 136.88331134 -232.6875 139.328125 C-288.83459361 201.0729651 -318.30862405 286.99694348 -314.67578125 370.06640625 C-313.44636943 393.03853615 -311.05904021 416.15667161 -304.5390625 438.3046875 C-303.88617973 441.4503954 -303.85986219 443.18573912 -304.9375 446.203125 C-311.0727558 453.89769759 -319.97596875 458.49476219 -329.65234375 459.64453125 C-342.28399324 460.04207555 -351.69198483 456.80281374 -360.9375 448.203125 C-377.94756327 431.38067272 -384.94025582 407.18741512 -385.17919922 383.7331543 C-385.23629283 356.4440864 -380.81627449 330.9646242 -361.3515625 310.4296875 C-354.38218537 304.00162122 -347.39911779 300.20880672 -337.9375 299.203125 C-337.79054688 298.1821875 -337.64359375 297.16125 -337.4921875 296.109375 C-328.27724343 235.11488095 -300.76623063 176.17882297 -260.9375 129.203125 C-259.79667969 127.78580078 -259.79667969 127.78580078 -258.6328125 126.33984375 C-251.57425714 117.68606572 -243.74675251 109.79593038 -235.875 101.890625 C-235.32055206 101.33100067 -234.76610413 100.77137634 -234.19485474 100.1947937 C-227.10913294 93.05702581 -219.83773088 86.44875653 -211.9375 80.203125 C-210.76335512 79.22693664 -209.59226189 78.24705263 -208.42578125 77.26171875 C-151.64825887 30.05622492 -74.05625569 0.31376271 0 0 Z " fill="#080808" transform="translate(431.9375,-0.203125)"/>
<path d="M0 0 C2.2097168 1.10058594 2.2097168 1.10058594 4.44921875 2.484375 C5.28831787 3.00080566 6.12741699 3.51723633 6.99194336 4.04931641 C7.88147705 4.61054199 8.77101074 5.17176758 9.6875 5.75 C10.61506104 6.33056152 11.54262207 6.91112305 12.49829102 7.50927734 C35.2195751 21.89160393 56.16832794 38.88366225 76 57 C76.98355469 57.87914062 77.96710938 58.75828125 78.98046875 59.6640625 C87.83856977 67.63375654 96.01078178 76.16434455 104 85 C104.5244873 85.57975586 105.04897461 86.15951172 105.58935547 86.75683594 C118.71835073 101.39397807 130.52806359 117.36425402 141 134 C141.45407227 134.72026367 141.90814453 135.44052734 142.37597656 136.18261719 C173.73404233 186.32583933 192.55449837 241.50899249 197.8125 300.375 C197.88197845 301.12916199 197.95145691 301.88332397 198.02304077 302.66033936 C200.18484661 326.550756 200.18484661 326.550756 194 335 C188.53835006 340.85621781 183.83315949 344.45598323 175.703125 345.37109375 C166.71517333 345.54393897 160.00412997 344.47290598 153.16015625 338.35546875 C147.51238903 332.23820499 145.61531363 325.65662248 144.97265625 317.55859375 C144.82114142 315.91731631 144.66961089 314.27604032 144.51806641 312.63476562 C144.44404602 311.78567627 144.37002563 310.93658691 144.29376221 310.06176758 C138.76542306 247.32846851 117.2527664 188.69373793 78 139 C77.53303711 138.40445313 77.06607422 137.80890625 76.58496094 137.1953125 C68.54868722 126.97944955 60.03923068 117.33690019 51 108 C50.10764648 107.07477539 50.10764648 107.07477539 49.19726562 106.13085938 C42.68500934 99.40739478 36.10856942 92.99911438 28.75 87.19140625 C26.28511937 85.2272045 23.8994214 83.19384809 21.52319336 81.12402344 C1.90086855 64.12102974 -20.37639311 50.87503763 -42.92480469 38.17919922 C-45.30742278 36.82531153 -47.66167164 35.42897844 -50 34 C-46.72756951 30.55564834 -43.50936084 27.85139471 -39.5 25.3125 C-29.4643766 18.75310845 -20.20296612 11.31787473 -11.13696289 3.4909668 C-5.38849497 -1.45782416 -5.38849497 -1.45782416 0 0 Z " fill="#060606" transform="translate(696,635)"/>
<path d="M0 0 C0.66 0.33 1.32 0.66 2 1 C-7.57 10.57 -17.14 20.14 -27 30 C-27.66 29.67 -28.32 29.34 -29 29 C-19.97646579 18.70041045 -10.52151609 8.7885605 0 0 Z " fill="#646464" transform="translate(272,139)"/>
<path d="M0 0 C0.66 0.33 1.32 0.66 2 1 C-7.9 10.9 -17.8 20.8 -28 31 C-28.66 30.67 -29.32 30.34 -30 30 C-20.75607385 19.8302569 -11.15320516 10.26016276 -1 1 C-0.67 0.67 -0.34 0.34 0 0 Z " fill="#6B6B6B" transform="translate(129,685)"/>
<path d="M0 0 C0.66 0.33 1.32 0.66 2 1 C-2.29 5.29 -6.58 9.58 -11 14 C-11.66 13.67 -12.32 13.34 -13 13 C-11.58791833 11.39179588 -10.17013964 9.78859292 -8.75 8.1875 C-7.96109375 7.29417969 -7.1721875 6.40085937 -6.359375 5.48046875 C-4.34120555 3.35871775 -2.40083295 1.65745577 0 0 Z " fill="#646464" transform="translate(77,305)"/>
</svg>
